<svg width="288" height="71" fill="none" xmlns="http://www.w3.org/2000/svg"><path d="M31.483 53.495c-1.573.244-3.477.44-5.713.59-2.238.146-4.756.22-7.558.22-4.228 0-7.547-.258-9.955-.776-2.409-.513-4.227-1.47-5.456-2.868C1.572 49.264.798 47.325.48 44.85.158 42.374 0 39.197 0 35.32c0-4.021.208-7.308.626-9.861.418-2.55 1.253-4.537 2.507-5.96 1.254-1.423 3.06-2.403 5.42-2.944 2.358-.539 5.504-.808 9.438-.808 2.801 0 5.283.085 7.447.257 2.162.173 4.03.356 5.603.552 1.817.196 3.415.441 4.792.736V23.4c-1.819-.148-3.637-.27-5.455-.368a147.733 147.733 0 00-5.126-.222 58.406 58.406 0 00-5.124.075c-1.72.049-3.085.147-4.092.293-1.008.148-1.758.615-2.249 1.398-.493.787-.799 2.025-.921 3.717-.124 1.693-.186 4.11-.186 7.248 0 2.846.049 5.041.149 6.588.097 1.543.379 2.673.846 3.382.468.712 1.217 1.14 2.249 1.288 1.034.15 2.482.247 4.35.297 1.672.096 3.453.123 5.346.073 1.891-.05 3.625-.124 5.199-.221 1.867-.1 3.711-.223 5.53-.37v6.109c-1.425.34-3.048.611-4.866.808zm38.27-.145V28.847c0-1.52-.137-2.698-.405-3.532-.271-.833-.702-1.434-1.29-1.802-.59-.368-1.341-.588-2.25-.661-.91-.075-2.003-.11-3.28-.11-1.133 0-2.14.025-3.024.072-.884.05-1.647.1-2.285.148a78.52 78.52 0 00-1.919.147v30.244H42.987V.002H55.3v16.116a88.488 88.488 0 011.919-.146c.637-.049 1.4-.098 2.285-.147a56.419 56.419 0 013.023-.074c3.293 0 6.168.11 8.626.33 2.457.222 4.498.773 6.121 1.656 1.62.883 2.825 2.197 3.613 3.937.784 1.741 1.179 4.135 1.179 7.175v24.504H69.752v-.002h.001zm20.941-42.973V0h12.313v10.377H90.694zm0 42.974V16.632h12.313v36.719H90.694zm60.828-18.031c0 4.12-.184 7.42-.553 9.896-.369 2.48-1.229 4.392-2.581 5.741-1.353 1.35-3.355 2.245-6.009 2.685-2.655.443-6.267.662-10.839.662-2.36 0-4.203-.073-5.53-.22a20.402 20.402 0 01-2.065-.223v16.19h-12.313v-52.76c1.523-.296 3.292-.541 5.309-.737a151.12 151.12 0 016.267-.552c2.458-.172 5.234-.257 8.332-.257 4.277 0 7.73.22 10.361.661 2.628.442 4.655 1.35 6.081 2.723 1.426 1.375 2.371 3.348 2.84 5.923.466 2.578.7 6 .7 10.269zm-12.756-.368c0-3.042-.062-5.396-.184-7.065-.124-1.668-.43-2.88-.923-3.642-.492-.76-1.253-1.201-2.285-1.325-1.032-.121-2.434-.183-4.201-.183a57.4 57.4 0 00-3.024.073c-.884.05-1.647.1-2.285.148-.738.048-1.377.098-1.918.147V47.02c.542.047 1.18.096 1.918.147.637.05 1.401.073 2.285.073h3.024c1.866 0 3.317-.061 4.348-.185 1.033-.12 1.782-.551 2.248-1.288.467-.735.75-1.885.849-3.459.099-1.569.148-3.799.148-6.695v-.662z" fill="#E30613"/><path d="M198.421 52.688c-1.574.344-3.368.613-5.383.81-1.72.244-3.796.44-6.23.59-2.433.146-5.198.22-8.294.22-4.573 0-8.186-.22-10.84-.663-2.655-.44-4.67-1.335-6.045-2.685-1.377-1.349-2.249-3.261-2.618-5.74-.369-2.477-.553-5.777-.553-9.897 0-4.268.232-7.691.7-10.266.468-2.574 1.412-4.548 2.84-5.923 1.424-1.373 3.452-2.28 6.082-2.722 2.629-.442 6.106-.662 10.434-.662 1.179 0 2.224.025 3.134.074.908.049 1.706.099 2.395.147.786.05 1.475.099 2.066.146V.002h12.312v52.686zm-12.313-29.654a85.476 85.476 0 00-1.919-.147 50.4 50.4 0 00-2.322-.111 116.97 116.97 0 00-3.06-.036c-1.768 0-3.17.062-4.202.183-1.031.124-1.806.565-2.321 1.325-.517.761-.837 1.975-.958 3.642-.124 1.668-.185 4.022-.185 7.065v.661c0 2.896.048 5.126.149 6.696.097 1.572.392 2.723.882 3.459.491.736 1.254 1.167 2.287 1.288 1.032.122 2.482.185 4.349.185 1.131 0 2.151-.013 3.06-.038a46.427 46.427 0 002.323-.109c.737-.05 1.376-.124 1.918-.223l-.001-23.84zm20.936-12.657V0h12.314v10.377h-12.314zm0 42.974V16.632h12.314v36.719h-12.314zm60.828-18.031c0 4.12-.183 7.42-.553 9.896-.37 2.48-1.228 4.392-2.581 5.741-1.352 1.35-3.355 2.245-6.008 2.685-2.655.443-6.267.662-10.84.662-2.359 0-4.201-.073-5.529-.22a20.338 20.338 0 01-2.065-.223v16.19h-12.313v-52.76c1.523-.296 3.293-.541 5.309-.737a151.21 151.21 0 016.266-.552c2.459-.172 5.234-.257 8.332-.257 4.277 0 7.73.22 10.361.661 2.628.442 4.656 1.35 6.081 2.723 1.427 1.375 2.371 3.348 2.84 5.923.466 2.578.7 6 .7 10.269zm-12.756-.368c0-3.042-.062-5.396-.184-7.065-.124-1.668-.431-2.88-.922-3.642-.493-.76-1.254-1.201-2.286-1.325-1.031-.121-2.434-.183-4.201-.183-1.133 0-2.139.026-3.023.073-.886.05-1.648.1-2.286.148a76.03 76.03 0 00-1.918.147V47.02c.541.047 1.18.096 1.918.147.637.05 1.4.073 2.286.073h3.023c1.866 0 3.316-.061 4.348-.185 1.034-.12 1.782-.551 2.249-1.288.468-.735.75-1.885.848-3.459.099-1.569.149-3.799.149-6.695l-.001-.662zm20.571 18.398V41.579H288v11.773h-12.313z" fill="#646363"/></svg>